<svg id="Layer_1" data-name="Layer 1" xmlns="http://www.w3.org/2000/svg" viewBox="0 0 400 400"><defs><style>.cls-1{fill:#fefefe;}.cls-2{fill:#10284b;}.cls-3{fill:#13294c;}.cls-4{fill:#132a4b;}.cls-5{fill:#132948;}.cls-6{fill:#142949;}.cls-7{fill:#142a49;}.cls-8{fill:#152948;}.cls-9{fill:#172e4d;}.cls-10{fill:#fbce06;}.cls-11{fill:#face07;}.cls-12{fill:#f9cd06;}.cls-13{fill:#ada864;}.cls-14{fill:#434000;}.cls-15{fill:#fbfcfb;}.cls-16{fill:#fbfbfb;}.cls-17{fill:#f8f9f9;}.cls-18{fill:#fafbfa;}</style></defs><path class="cls-1" d="M363.08,1218.05q0-97.92-.08-195.84c0-3.19.33-4.21,4-4.21q196.11.19,392.22,0c3.17,0,3.81.76,3.81,3.84q-.13,196.09,0,392.18c0,2.86-.31,4-3.69,4q-196.36-.16-392.73,0c-3,0-3.56-.67-3.56-3.6Q363.15,1316.22,363.08,1218.05Zm233.16-36.16c-17,0-34,.08-51-.07-3.28,0-4.62.53-4.58,4.26q.28,31.22,0,62.44c0,3.34.69,4.55,4.33,4.53q50.94-.21,101.9,0c3.65,0,4.35-1.2,4.33-4.54q-.21-31,0-61.93c0-3.59-.68-4.84-4.59-4.78C629.88,1182,613.06,1181.9,596.24,1181.89Zm-149.38,40.66h0c0,4.49-.13,9,.1,13.46a3.81,3.81,0,0,0,2.15,2.8c2.26.64,2.71-1,2.69-2.93-.06-5.48-.1-11,0-16.46.12-6.24,2.74-9.17,8-9.22s8,3,8.1,9.13c.12,5.15,0,10.31.07,15.46,0,1.73-1,4.28,2.49,4.16s2.24-2.71,2.29-4.4c.14-5,0-10,.06-15,.08-6.35,2.91-9.47,8.36-9.38,5.26.09,7.82,3,7.93,9.28.09,5.48.08,11,0,16.46,0,2,.53,3.52,2.72,2.86a3.86,3.86,0,0,0,2.12-2.87c.21-5.31,0-10.64.11-16s-.79-10.21-6-12.7a13.55,13.55,0,0,0-15.39,1.87,3.17,3.17,0,0,1-3,0c-5-4.22-10.19-4.21-15.77-1.45-.54.26-1.52-.38-2.29-.58-1.19-.31-2.44-1-3.53-.77-.55.1-1.13,1.76-1.15,2.73C446.79,1213.57,446.86,1218.06,446.86,1222.55Zm285.89-7h0c0,6.82-.05,13.63,0,20.45,0,1,.52,2.44,1.21,2.74.86.37,3,0,3.11-.45.84-3.24,2.16-1.16,3.43-.5,7.84,4,15.92.55,17.59-8a38.74,38.74,0,0,0,.39-12.84c-1.47-10-9.18-13.82-18.33-9.27-2.65,1.32-2.66.35-2.62-1.73.06-3.83.18-7.66-.09-11.47a3.89,3.89,0,0,0-2.21-2.84c-2.4-.65-2.53,1.19-2.52,3C732.77,1201.55,732.75,1208.54,732.75,1215.52Zm-227.06,14c0,6.48-.09,13,.06,19.45.05,1.77-1.44,4.79,2.45,4.65s2-3.15,2.2-4.89a66.5,66.5,0,0,0,.05-9.47c-.15-2.94.13-3.4,3-1.65,7.47,4.51,15.9.82,17.7-7.72a40.56,40.56,0,0,0,.61-11.38c-.94-11.45-9-15.69-19.32-10.48-.48.24-1.33-.09-2-.31-1.2-.44-2.36-1-3.53-1.5-.43,1.11-1.2,2.22-1.22,3.34C505.63,1216.19,505.69,1222.85,505.69,1229.5ZM367.82,1215h.41a96.15,96.15,0,0,0,.07,10.47c.81,7.57,6.63,13,14.23,13.71,8.48.79,15.26-3.24,17.68-10.68.31-1-.18-2.19-.29-3.3a25,25,0,0,0-4.25,1.45c-.58.31-.68,1.46-1.09,2.18a11.11,11.11,0,0,1-11.75,5.73c-5-.78-8.69-3.91-9.09-9.15a127.34,127.34,0,0,1,0-20.39c.5-5.88,4.73-9,10.6-9.17,5.08-.15,8.77,2.13,10.54,6.79,1.06,2.76,2.89,3.14,5,2.35.44-.17.33-3.15-.26-4.52-2.83-6.63-9.56-10.14-17.17-9.24-7.46.88-13.08,6-14.09,13.31C367.89,1208,368,1211.48,367.82,1215Zm353.3,11h0c0-3.32.47-6.73-.15-9.93-.53-2.75-1.72-5.86-3.66-7.73-3.75-3.62-14.25-3.55-18.36-.31-.93.74-1.81,2.85-1.4,3.72.93,2,2.35.59,4,.14a27.25,27.25,0,0,1,10.48-1.06c3.92.49,4.45,4.07,4.09,7.4-.39,3.66-3.34,1.57-5.1,1.85-3.25.52-6.66.19-9.84.94-4.11,1-6.18,4.28-6.19,8.55,0,4.53,2.19,8.26,6.37,8.93,3.66.6,7.52.11,11.27-.2,1.55-.12,2.67-2.38,4.6.27.89,1.23,4.19,1,4-2.6C721,1232.67,721.12,1229.34,721.12,1226Zm-284.31-3.73c-.23-2-.32-4-.71-5.92-1.33-6.59-6-10.38-12.62-10.47s-11.84,3.37-13,10a41.18,41.18,0,0,0,0,13.34c1.07,6.53,6.18,10.08,12.94,10s11.33-3.85,12.64-10.46C436.48,1226.63,436.57,1224.46,436.81,1222.28ZM660,1215c0,6.82.08,13.63,0,20.44,0,2.41.42,3.62,3.23,3.56,7.81-.16,15.62,0,23.43-.14a3.88,3.88,0,0,0,2.94-2.11c.6-2.41-1.31-2.5-3.1-2.49-5.65,0-11.31-.2-17,.08-3.5.17-4.5-.93-4.44-4.42.21-11.63.08-23.26.07-34.89,0-1.8.46-3.71-2.54-3.66s-2.61,1.83-2.6,3.69Q660,1205,660,1215Z" transform="translate(-363 -1018)"/><path class="cls-2" d="M596.24,1181.9c16.82,0,33.64.14,50.46-.1,3.91-.06,4.61,1.19,4.59,4.78q-.25,31,0,61.93c0,3.34-.68,4.56-4.33,4.54q-51-.21-101.9,0c-3.64,0-4.35-1.19-4.33-4.53q.22-31.21,0-62.44c0-3.73,1.3-4.29,4.58-4.26C562.28,1182,579.26,1181.89,596.24,1181.9ZM592,1226l.9,1.37c1.52,6.55,7.23,11.43,14.44,12.32s14.5-2.69,17.55-8.84c.86-1.73,1.49-4.14.94-5.82-.5-1.53-7.18-.53-8.65,1.11a14.93,14.93,0,0,0-1.08,1.67c-2,3-5,3.65-8.3,3.22s-5.73-2.72-5.94-5.84a141.46,141.46,0,0,1-.06-18.87,6.63,6.63,0,0,1,6.12-6.27c3.55-.49,6.56.36,8.54,3.72,1.3,2.18,7.7,3.68,9.51,2.25a2.37,2.37,0,0,0,.42-2.07c-2-6.56-7-12.44-16.58-12.27-9,.17-15.17,4.47-16.92,12.25a3.85,3.85,0,0,0-.73.37Q592.06,1215.1,592,1226Zm-9.3-10c0-6.82,0-13.64-.06-20.46,0-1.14-.43-2.89-1.21-3.31-4.33-2.32-8.26.22-8.27,5.13v2c0,12.91,0,12.86-13,11.89-2.33-.17-3.26-.92-3.2-3.27.12-4.15-.26-8.34.11-12.46s-2.3-3.52-4.73-3.6c-2.64-.09-4.76-.18-4.69,3.75.24,13.3.16,26.6.07,39.91,0,2.8,1,3.77,3.79,3.8,5.1.06,5.45-.12,5.49-5.06,0-1,0-2,0-3,0-12.4,0-12.33,12.4-12,2.68.07,3.94.63,3.78,3.62-.23,4.14.18,8.33-.13,12.46-.28,3.73,1.69,4.06,4.54,3.94,2.67-.12,5.37.51,5.15-3.88C582.44,1229,582.68,1222.45,582.69,1216Zm52.34-.44h0c0,6.81.13,13.62-.06,20.42-.09,3.2,1.58,3.67,4,3.31,2.13-.32,5.39,1.35,5.39-3,0-13.61,0-27.22.13-40.83,0-4.37-3-3.32-5.49-3.54-2.83-.25-4.22.44-4.09,3.74C635.21,1202.24,635,1208.89,635,1215.53Z" transform="translate(-363 -1018)"/><path class="cls-3" d="M446.86,1222.55c0-4.49-.07-9,.05-13.47,0-1,.6-2.63,1.15-2.73,1.09-.2,2.34.46,3.53.77.77.2,1.75.84,2.29.58,5.58-2.76,10.79-2.77,15.77,1.45a3.17,3.17,0,0,0,3,0,13.55,13.55,0,0,1,15.39-1.87c5.2,2.49,6.11,7.41,6,12.7s.1,10.65-.11,16a3.86,3.86,0,0,1-2.12,2.87c-2.19.66-2.75-.84-2.72-2.86.08-5.49.09-11,0-16.46-.11-6.26-2.67-9.19-7.93-9.28-5.45-.09-8.28,3-8.36,9.38-.06,5,.08,10-.06,15-.05,1.69,1.17,4.27-2.29,4.4s-2.45-2.43-2.49-4.16c-.1-5.15,0-10.31-.07-15.46-.13-6.18-2.88-9.18-8.1-9.13s-7.89,3-8,9.22c-.11,5.49-.07,11,0,16.46,0,1.94-.43,3.57-2.69,2.93a3.81,3.81,0,0,1-2.15-2.8c-.23-4.48-.1-9-.1-13.46Z" transform="translate(-363 -1018)"/><path class="cls-4" d="M732.75,1215.52c0-7,0-14,0-21,0-1.82.12-3.66,2.52-3a3.89,3.89,0,0,1,2.21,2.84c.27,3.81.15,7.64.09,11.47,0,2.08,0,3.05,2.62,1.73,9.15-4.55,16.86-.74,18.33,9.27a38.74,38.74,0,0,1-.39,12.84c-1.67,8.6-9.75,12.1-17.59,8-1.27-.66-2.59-2.74-3.43.5-.11.44-2.25.82-3.11.45-.69-.3-1.19-1.78-1.21-2.74-.1-6.82,0-13.63,0-20.45Zm4.61,6.9a50.74,50.74,0,0,0,1.23,7.51c1.06,3.36,3.62,5,7.23,5s6.67-1.45,7-5a63.62,63.62,0,0,0-.16-15.17c-.44-3.24-3.52-4.61-6.89-4.55-3.52.07-6.21,1.52-7.23,5A56.89,56.89,0,0,0,737.36,1222.42Z" transform="translate(-363 -1018)"/><path class="cls-5" d="M505.69,1229.5c0-6.65-.06-13.31.06-20,0-1.12.79-2.23,1.22-3.34,1.17.5,2.33,1.06,3.53,1.5.62.22,1.47.55,2,.31,10.32-5.21,18.38-1,19.32,10.48a40.56,40.56,0,0,1-.61,11.38c-1.8,8.54-10.23,12.23-17.7,7.72-2.88-1.75-3.16-1.29-3,1.65a66.5,66.5,0,0,1-.05,9.47c-.16,1.74,1.68,4.75-2.2,4.89s-2.4-2.88-2.45-4.65C505.6,1242.47,505.69,1236,505.69,1229.5Zm21.58-7c-.3-2.16-.42-4.32-.92-6.39-.92-3.81-3.31-6-7.42-6s-7.11,2-7.69,6.24a44.77,44.77,0,0,0,0,12.29c.62,4.29,3.62,6.22,7.72,6.2s6.49-2.15,7.36-6C526.8,1226.82,527,1224.67,527.27,1222.54Z" transform="translate(-363 -1018)"/><path class="cls-6" d="M367.82,1215c.17-3.49.07-7,.55-10.46,1-7.28,6.63-12.43,14.09-13.31,7.61-.9,14.34,2.61,17.17,9.24.59,1.37.7,4.35.26,4.52-2.11.79-3.94.41-5-2.35-1.77-4.66-5.46-6.94-10.54-6.79-5.87.18-10.1,3.29-10.6,9.17a127.34,127.34,0,0,0,0,20.39c.4,5.24,4.09,8.37,9.09,9.15a11.11,11.11,0,0,0,11.75-5.73c.41-.72.51-1.87,1.09-2.18a25,25,0,0,1,4.25-1.45c.11,1.11.6,2.33.29,3.3-2.42,7.44-9.2,11.47-17.68,10.68-7.6-.72-13.42-6.14-14.23-13.71a96.15,96.15,0,0,1-.07-10.47Z" transform="translate(-363 -1018)"/><path class="cls-7" d="M721.12,1226c0,3.33-.15,6.66,0,10,.21,3.61-3.09,3.83-4,2.6-1.93-2.65-3-.39-4.6-.27-3.75.31-7.61.8-11.27.2-4.18-.67-6.37-4.4-6.37-8.93,0-4.27,2.08-7.59,6.19-8.55,3.18-.75,6.59-.42,9.84-.94,1.76-.28,4.71,1.81,5.1-1.85.36-3.33-.17-6.91-4.09-7.4a27.25,27.25,0,0,0-10.48,1.06c-1.61.45-3,1.87-4-.14-.41-.87.47-3,1.4-3.72,4.11-3.24,14.61-3.31,18.36.31,1.94,1.87,3.13,5,3.66,7.73.62,3.2.15,6.61.15,9.93Zm-14.31,9.8.44-.75a26.72,26.72,0,0,0,3-.18c4.49-.71,6.48-3.56,5.94-8.64-.49-4.58-4-1.87-6.13-2.28a15,15,0,0,0-6.35.41c-3.58.91-5.45,5-3.25,7.74C701.86,1233.9,704.64,1234.62,706.81,1235.81Z" transform="translate(-363 -1018)"/><path class="cls-8" d="M436.81,1222.28c-.24,2.18-.33,4.35-.74,6.46-1.31,6.61-5.95,10.39-12.64,10.46s-11.87-3.48-12.94-10a41.18,41.18,0,0,1,0-13.34c1.12-6.59,6.17-10,13-10s11.29,3.88,12.62,10.47C436.49,1218.3,436.58,1220.3,436.81,1222.28Zm-22.28-.09a57.63,57.63,0,0,0,.7,6.21c.94,4.31,3.91,6.58,8.16,6.5,4.05-.08,7.15-2.22,7.67-6.36a46,46,0,0,0-.07-12.3c-.59-4-3.85-6.14-7.93-6s-6.65,2-7.65,5.86A51.25,51.25,0,0,0,414.53,1222.19Z" transform="translate(-363 -1018)"/><path class="cls-9" d="M660,1215q0-10,0-19.94c0-1.86-.26-3.64,2.6-3.69s2.54,1.86,2.54,3.66c0,11.63.14,23.26-.07,34.89-.06,3.49.94,4.59,4.44,4.42,5.64-.28,11.3,0,17-.08,1.79,0,3.7.08,3.1,2.49a3.88,3.88,0,0,1-2.94,2.11c-7.81.17-15.62,0-23.43.14-2.81.06-3.27-1.15-3.23-3.56C660.06,1228.62,660,1221.81,660,1215Z" transform="translate(-363 -1018)"/><path class="cls-10" d="M582.68,1216c0,6.48-.24,13,.08,19.45.22,4.39-2.48,3.76-5.15,3.88-2.85.12-4.82-.21-4.54-3.94.31-4.13-.1-8.32.13-12.46.16-3-1.1-3.55-3.78-3.62-12.42-.31-12.42-.38-12.4,12,0,1,0,2,0,3,0,4.94-.39,5.12-5.49,5.06-2.78,0-3.81-1-3.79-3.8.09-13.31.17-26.61-.07-39.91-.07-3.93,2.05-3.84,4.69-3.75,2.43.08,5.11-.61,4.73,3.6s0,8.31-.11,12.46c-.06,2.35.87,3.1,3.2,3.27,13,1,13,1,13-11.89v-2c0-4.91,3.94-7.45,8.27-5.13.78.42,1.2,2.17,1.21,3.31C582.74,1202.33,582.69,1209.15,582.68,1216Z" transform="translate(-363 -1018)"/><path class="cls-11" d="M592.88,1203.88c1.75-7.78,7.93-12.08,16.92-12.25,9.55-.17,14.62,5.71,16.58,12.27A2.37,2.37,0,0,1,626,1206c-1.81,1.43-8.21-.07-9.51-2.25-2-3.36-5-4.21-8.54-3.72a6.63,6.63,0,0,0-6.12,6.27,141.46,141.46,0,0,0,.06,18.87c.21,3.12,2.5,5.39,5.94,5.84s6.3-.18,8.3-3.22a14.93,14.93,0,0,1,1.08-1.67c1.47-1.64,8.15-2.64,8.65-1.11.55,1.68-.08,4.09-.94,5.82-3,6.15-10.44,9.72-17.55,8.84s-12.92-5.77-14.44-12.32Q592.89,1215.61,592.88,1203.88Z" transform="translate(-363 -1018)"/><path class="cls-12" d="M635,1215.53c0-6.64.18-13.29-.07-19.92-.13-3.3,1.26-4,4.09-3.74,2.5.22,5.53-.83,5.49,3.54-.12,13.61-.14,27.22-.13,40.83,0,4.37-3.26,2.7-5.39,3-2.44.36-4.11-.11-4-3.31.19-6.8.06-13.61.06-20.42Z" transform="translate(-363 -1018)"/><path class="cls-13" d="M592.88,1203.88q0,11.73,0,23.44L592,1226q.07-10.85.16-21.7A3.85,3.85,0,0,1,592.88,1203.88Z" transform="translate(-363 -1018)"/><path class="cls-14" d="M592.15,1204.25q-.09,10.85-.16,21.7Q592.06,1215.11,592.15,1204.25Z" transform="translate(-363 -1018)"/><path class="cls-15" d="M737.36,1222.42a56.89,56.89,0,0,1,1.23-7.25c1-3.47,3.71-4.92,7.23-5,3.37-.06,6.45,1.31,6.89,4.55a63.62,63.62,0,0,1,.16,15.17c-.38,3.56-3.46,5-7,5s-6.17-1.62-7.23-5A50.74,50.74,0,0,1,737.36,1222.42Z" transform="translate(-363 -1018)"/><path class="cls-16" d="M527.27,1222.54c-.3,2.13-.47,4.28-.94,6.36-.87,3.86-3.27,6-7.36,6s-7.1-1.91-7.72-6.2a44.77,44.77,0,0,1,0-12.29c.58-4.24,3.6-6.22,7.69-6.24s6.5,2.16,7.42,6C526.85,1218.22,527,1220.38,527.27,1222.54Z" transform="translate(-363 -1018)"/><path class="cls-17" d="M706.81,1235.81c-2.17-1.19-4.95-1.91-6.39-3.7-2.2-2.74-.33-6.83,3.25-7.74A15,15,0,0,1,710,1224c2.09.41,5.64-2.3,6.13,2.28.54,5.08-1.45,7.93-5.94,8.64a26.72,26.72,0,0,1-3,.18Z" transform="translate(-363 -1018)"/><path class="cls-18" d="M414.53,1222.19a51.25,51.25,0,0,1,.88-6.12c1-3.85,3.71-5.76,7.65-5.86s7.34,2,7.93,6a46,46,0,0,1,.07,12.3c-.52,4.14-3.62,6.28-7.67,6.36-4.25.08-7.22-2.19-8.16-6.5A57.63,57.63,0,0,1,414.53,1222.19Z" transform="translate(-363 -1018)"/></svg>